<mxfile host="app.diagrams.net" modified="2024-05-05T16:32:51.149Z" agent="Mozilla/5.0 (Windows NT 10.0; Win64; x64) AppleWebKit/537.36 (KHTML, like Gecko) Chrome/124.0.0.0 Safari/537.36" etag="E8xXTk2d_ekswQ1Ns7xg" version="24.3.1" type="github">
  <diagram name="Page-1" id="qN-hHGNp-PaqybvG4y1c">
    <mxGraphModel dx="1082" dy="656" grid="1" gridSize="10" guides="1" tooltips="1" connect="1" arrows="1" fold="1" page="1" pageScale="1" pageWidth="850" pageHeight="1100" background="#F0E1CD" math="0" shadow="0">
      <root>
        <mxCell id="0" />
        <mxCell id="1" parent="0" />
        <mxCell id="HSe9ybnoeYAT-a-J8o3R-3" value="" style="whiteSpace=wrap;html=1;rounded=1;arcSize=50;align=center;verticalAlign=middle;strokeWidth=1;autosize=1;spacing=4;treeFolding=1;treeMoving=1;newEdgeStyle={&quot;edgeStyle&quot;:&quot;entityRelationEdgeStyle&quot;,&quot;startArrow&quot;:&quot;none&quot;,&quot;endArrow&quot;:&quot;none&quot;,&quot;segment&quot;:10,&quot;curved&quot;:1,&quot;sourcePerimeterSpacing&quot;:0,&quot;targetPerimeterSpacing&quot;:0};direction=south;fillColor=#e1d5e7;strokeColor=#9673a6;" vertex="1" parent="1">
          <mxGeometry x="170.5" y="781.75" width="20" height="120" as="geometry" />
        </mxCell>
        <mxCell id="HSe9ybnoeYAT-a-J8o3R-8" value="" style="whiteSpace=wrap;html=1;rounded=1;arcSize=50;align=center;verticalAlign=middle;strokeWidth=1;autosize=1;spacing=4;treeFolding=1;treeMoving=1;newEdgeStyle={&quot;edgeStyle&quot;:&quot;entityRelationEdgeStyle&quot;,&quot;startArrow&quot;:&quot;none&quot;,&quot;endArrow&quot;:&quot;none&quot;,&quot;segment&quot;:10,&quot;curved&quot;:1,&quot;sourcePerimeterSpacing&quot;:0,&quot;targetPerimeterSpacing&quot;:0};direction=south;fillColor=#bac8d3;strokeColor=#23445d;" vertex="1" parent="1">
          <mxGeometry x="63.5" y="781.75" width="27" height="129.5" as="geometry" />
        </mxCell>
        <mxCell id="HSe9ybnoeYAT-a-J8o3R-16" value="" style="whiteSpace=wrap;html=1;rounded=1;arcSize=50;align=center;verticalAlign=middle;strokeWidth=1;autosize=1;spacing=4;treeFolding=1;treeMoving=1;newEdgeStyle={&quot;edgeStyle&quot;:&quot;entityRelationEdgeStyle&quot;,&quot;startArrow&quot;:&quot;none&quot;,&quot;endArrow&quot;:&quot;none&quot;,&quot;segment&quot;:10,&quot;curved&quot;:1,&quot;sourcePerimeterSpacing&quot;:0,&quot;targetPerimeterSpacing&quot;:0};direction=south;fillColor=#e1d5e7;strokeColor=#9673a6;" vertex="1" parent="1">
          <mxGeometry x="120.5" y="780.25" width="20" height="121" as="geometry" />
        </mxCell>
        <mxCell id="HSe9ybnoeYAT-a-J8o3R-33" value="" style="verticalLabelPosition=bottom;verticalAlign=top;html=1;shape=mxgraph.basic.arc;startAngle=0.878834316870679;endAngle=0.11506573784722958;" vertex="1" parent="1">
          <mxGeometry x="180.5" y="771.25" width="40" height="110" as="geometry" />
        </mxCell>
        <mxCell id="HSe9ybnoeYAT-a-J8o3R-37" value="" style="edgeStyle=entityRelationEdgeStyle;startArrow=none;endArrow=none;segment=10;curved=1;sourcePerimeterSpacing=0;targetPerimeterSpacing=0;rounded=0;" edge="1" parent="1">
          <mxGeometry relative="1" as="geometry">
            <mxPoint x="70.5" y="780.25" as="sourcePoint" />
            <mxPoint x="100.5" y="736.25" as="targetPoint" />
          </mxGeometry>
        </mxCell>
        <mxCell id="HSe9ybnoeYAT-a-J8o3R-38" value="" style="edgeStyle=orthogonalEdgeStyle;fontSize=12;html=1;endArrow=ERmany;rounded=0;curved=1;" edge="1" parent="1">
          <mxGeometry width="100" height="100" relative="1" as="geometry">
            <mxPoint x="124" y="780.25" as="sourcePoint" />
            <mxPoint x="114" y="740.25" as="targetPoint" />
            <Array as="points">
              <mxPoint x="147" y="780.25" />
              <mxPoint x="147" y="755.25" />
              <mxPoint x="124" y="755.25" />
              <mxPoint x="124" y="740.25" />
            </Array>
          </mxGeometry>
        </mxCell>
        <mxCell id="HSe9ybnoeYAT-a-J8o3R-41" value="" style="verticalLabelPosition=bottom;verticalAlign=top;html=1;shape=mxgraph.basic.arc;startAngle=0.8988433930003166;endAngle=0.09476242484817017;direction=west;" vertex="1" parent="1">
          <mxGeometry x="130.5" y="776.25" width="45" height="130" as="geometry" />
        </mxCell>
        <mxCell id="HSe9ybnoeYAT-a-J8o3R-114" value="" style="whiteSpace=wrap;html=1;rounded=1;arcSize=50;align=center;verticalAlign=middle;strokeWidth=1;autosize=1;spacing=4;treeFolding=1;treeMoving=1;newEdgeStyle={&quot;edgeStyle&quot;:&quot;entityRelationEdgeStyle&quot;,&quot;startArrow&quot;:&quot;none&quot;,&quot;endArrow&quot;:&quot;none&quot;,&quot;segment&quot;:10,&quot;curved&quot;:1,&quot;sourcePerimeterSpacing&quot;:0,&quot;targetPerimeterSpacing&quot;:0};direction=south;fillColor=#e1d5e7;strokeColor=#9673a6;" vertex="1" parent="1">
          <mxGeometry x="210.5" y="781.25" width="20" height="119.75" as="geometry" />
        </mxCell>
        <mxCell id="HSe9ybnoeYAT-a-J8o3R-115" value="" style="whiteSpace=wrap;html=1;rounded=1;arcSize=50;align=center;verticalAlign=middle;strokeWidth=1;autosize=1;spacing=4;treeFolding=1;treeMoving=1;newEdgeStyle={&quot;edgeStyle&quot;:&quot;entityRelationEdgeStyle&quot;,&quot;startArrow&quot;:&quot;none&quot;,&quot;endArrow&quot;:&quot;none&quot;,&quot;segment&quot;:10,&quot;curved&quot;:1,&quot;sourcePerimeterSpacing&quot;:0,&quot;targetPerimeterSpacing&quot;:0};direction=south;fillColor=#e1d5e7;strokeColor=#9673a6;" vertex="1" collapsed="1" parent="1">
          <mxGeometry x="250.5" y="781.25" width="20" height="119.5" as="geometry" />
        </mxCell>
        <mxCell id="HSe9ybnoeYAT-a-J8o3R-119" value="" style="verticalLabelPosition=bottom;verticalAlign=top;html=1;shape=mxgraph.basic.arc;startAngle=0.9253616303125026;endAngle=0.07379180882521663;direction=west;" vertex="1" parent="1">
          <mxGeometry x="220.5" y="771.25" width="45" height="135" as="geometry" />
        </mxCell>
        <mxCell id="HSe9ybnoeYAT-a-J8o3R-120" value="" style="line;strokeWidth=1;rotatable=0;dashed=0;labelPosition=right;align=left;verticalAlign=middle;spacingTop=0;spacingLeft=6;points=[];portConstraint=eastwest;" vertex="1" parent="1">
          <mxGeometry x="90.5" y="781.75" width="30" height="10" as="geometry" />
        </mxCell>
        <mxCell id="HSe9ybnoeYAT-a-J8o3R-121" value="" style="line;strokeWidth=1;rotatable=0;dashed=0;labelPosition=right;align=left;verticalAlign=middle;spacingTop=0;spacingLeft=6;points=[];portConstraint=eastwest;" vertex="1" parent="1">
          <mxGeometry x="140.5" y="781.75" width="30" height="10" as="geometry" />
        </mxCell>
        <mxCell id="HSe9ybnoeYAT-a-J8o3R-122" value="" style="line;strokeWidth=1;rotatable=0;dashed=0;labelPosition=right;align=left;verticalAlign=middle;spacingTop=0;spacingLeft=6;points=[];portConstraint=eastwest;" vertex="1" parent="1">
          <mxGeometry x="190.5" y="781.75" width="30" height="10" as="geometry" />
        </mxCell>
        <mxCell id="HSe9ybnoeYAT-a-J8o3R-123" value="" style="line;strokeWidth=1;rotatable=0;dashed=0;labelPosition=right;align=left;verticalAlign=middle;spacingTop=0;spacingLeft=6;points=[];portConstraint=eastwest;" vertex="1" parent="1">
          <mxGeometry x="228" y="786.5" width="30" height="0.5" as="geometry" />
        </mxCell>
        <mxCell id="HSe9ybnoeYAT-a-J8o3R-124" value="" style="line;strokeWidth=1;rotatable=0;dashed=0;labelPosition=right;align=left;verticalAlign=middle;spacingTop=0;spacingLeft=6;points=[];portConstraint=eastwest;" vertex="1" parent="1">
          <mxGeometry x="90.5" y="891.25" width="180" height="0.5" as="geometry" />
        </mxCell>
        <mxCell id="HSe9ybnoeYAT-a-J8o3R-125" value="" style="whiteSpace=wrap;html=1;rounded=1;arcSize=50;align=center;verticalAlign=middle;strokeWidth=1;autosize=1;spacing=4;treeFolding=1;treeMoving=1;newEdgeStyle={&quot;edgeStyle&quot;:&quot;entityRelationEdgeStyle&quot;,&quot;startArrow&quot;:&quot;none&quot;,&quot;endArrow&quot;:&quot;none&quot;,&quot;segment&quot;:10,&quot;curved&quot;:1,&quot;sourcePerimeterSpacing&quot;:0,&quot;targetPerimeterSpacing&quot;:0};direction=south;fillColor=#e1d5e7;strokeColor=#9673a6;" vertex="1" parent="1">
          <mxGeometry x="554" y="777.75" width="20" height="120" as="geometry" />
        </mxCell>
        <mxCell id="HSe9ybnoeYAT-a-J8o3R-126" value="" style="whiteSpace=wrap;html=1;rounded=1;arcSize=50;align=center;verticalAlign=middle;strokeWidth=1;autosize=1;spacing=4;treeFolding=1;treeMoving=1;newEdgeStyle={&quot;edgeStyle&quot;:&quot;entityRelationEdgeStyle&quot;,&quot;startArrow&quot;:&quot;none&quot;,&quot;endArrow&quot;:&quot;none&quot;,&quot;segment&quot;:10,&quot;curved&quot;:1,&quot;sourcePerimeterSpacing&quot;:0,&quot;targetPerimeterSpacing&quot;:0};direction=south;fillColor=#bac8d3;strokeColor=#23445d;" vertex="1" parent="1">
          <mxGeometry x="447" y="777.75" width="27" height="129.5" as="geometry" />
        </mxCell>
        <mxCell id="HSe9ybnoeYAT-a-J8o3R-127" value="" style="whiteSpace=wrap;html=1;rounded=1;arcSize=50;align=center;verticalAlign=middle;strokeWidth=1;autosize=1;spacing=4;treeFolding=1;treeMoving=1;newEdgeStyle={&quot;edgeStyle&quot;:&quot;entityRelationEdgeStyle&quot;,&quot;startArrow&quot;:&quot;none&quot;,&quot;endArrow&quot;:&quot;none&quot;,&quot;segment&quot;:10,&quot;curved&quot;:1,&quot;sourcePerimeterSpacing&quot;:0,&quot;targetPerimeterSpacing&quot;:0};direction=south;fillColor=#e1d5e7;strokeColor=#9673a6;" vertex="1" parent="1">
          <mxGeometry x="504" y="776.25" width="20" height="121" as="geometry" />
        </mxCell>
        <mxCell id="HSe9ybnoeYAT-a-J8o3R-128" value="" style="verticalLabelPosition=bottom;verticalAlign=top;html=1;shape=mxgraph.basic.arc;startAngle=0.878834316870679;endAngle=0.11506573784722958;" vertex="1" parent="1">
          <mxGeometry x="564" y="767.25" width="40" height="110" as="geometry" />
        </mxCell>
        <mxCell id="HSe9ybnoeYAT-a-J8o3R-129" value="" style="edgeStyle=entityRelationEdgeStyle;startArrow=none;endArrow=none;segment=10;curved=1;sourcePerimeterSpacing=0;targetPerimeterSpacing=0;rounded=0;" edge="1" parent="1">
          <mxGeometry relative="1" as="geometry">
            <mxPoint x="454" y="776.25" as="sourcePoint" />
            <mxPoint x="484" y="732.25" as="targetPoint" />
          </mxGeometry>
        </mxCell>
        <mxCell id="HSe9ybnoeYAT-a-J8o3R-130" value="" style="edgeStyle=orthogonalEdgeStyle;fontSize=12;html=1;endArrow=ERmany;rounded=0;curved=1;" edge="1" parent="1">
          <mxGeometry width="100" height="100" relative="1" as="geometry">
            <mxPoint x="507.5" y="776.25" as="sourcePoint" />
            <mxPoint x="497.5" y="736.25" as="targetPoint" />
            <Array as="points">
              <mxPoint x="530.5" y="776.25" />
              <mxPoint x="530.5" y="751.25" />
              <mxPoint x="507.5" y="751.25" />
              <mxPoint x="507.5" y="736.25" />
            </Array>
          </mxGeometry>
        </mxCell>
        <mxCell id="HSe9ybnoeYAT-a-J8o3R-131" value="" style="verticalLabelPosition=bottom;verticalAlign=top;html=1;shape=mxgraph.basic.arc;startAngle=0.8988433930003166;endAngle=0.09476242484817017;direction=west;" vertex="1" parent="1">
          <mxGeometry x="514" y="772.25" width="45" height="130" as="geometry" />
        </mxCell>
        <mxCell id="HSe9ybnoeYAT-a-J8o3R-132" value="" style="whiteSpace=wrap;html=1;rounded=1;arcSize=50;align=center;verticalAlign=middle;strokeWidth=1;autosize=1;spacing=4;treeFolding=1;treeMoving=1;newEdgeStyle={&quot;edgeStyle&quot;:&quot;entityRelationEdgeStyle&quot;,&quot;startArrow&quot;:&quot;none&quot;,&quot;endArrow&quot;:&quot;none&quot;,&quot;segment&quot;:10,&quot;curved&quot;:1,&quot;sourcePerimeterSpacing&quot;:0,&quot;targetPerimeterSpacing&quot;:0};direction=south;fillColor=#e1d5e7;strokeColor=#9673a6;" vertex="1" parent="1">
          <mxGeometry x="594" y="777.25" width="20" height="119.75" as="geometry" />
        </mxCell>
        <mxCell id="HSe9ybnoeYAT-a-J8o3R-133" value="" style="whiteSpace=wrap;html=1;rounded=1;arcSize=50;align=center;verticalAlign=middle;strokeWidth=1;autosize=1;spacing=4;treeFolding=1;treeMoving=1;newEdgeStyle={&quot;edgeStyle&quot;:&quot;entityRelationEdgeStyle&quot;,&quot;startArrow&quot;:&quot;none&quot;,&quot;endArrow&quot;:&quot;none&quot;,&quot;segment&quot;:10,&quot;curved&quot;:1,&quot;sourcePerimeterSpacing&quot;:0,&quot;targetPerimeterSpacing&quot;:0};direction=south;fillColor=#e1d5e7;strokeColor=#9673a6;" vertex="1" collapsed="1" parent="1">
          <mxGeometry x="634" y="777.25" width="20" height="119.5" as="geometry" />
        </mxCell>
        <mxCell id="HSe9ybnoeYAT-a-J8o3R-134" value="" style="verticalLabelPosition=bottom;verticalAlign=top;html=1;shape=mxgraph.basic.arc;startAngle=0.9253616303125026;endAngle=0.07379180882521663;direction=west;" vertex="1" parent="1">
          <mxGeometry x="604" y="767.25" width="45" height="135" as="geometry" />
        </mxCell>
        <mxCell id="HSe9ybnoeYAT-a-J8o3R-135" value="" style="line;strokeWidth=1;rotatable=0;dashed=0;labelPosition=right;align=left;verticalAlign=middle;spacingTop=0;spacingLeft=6;points=[];portConstraint=eastwest;" vertex="1" parent="1">
          <mxGeometry x="474" y="777.75" width="30" height="10" as="geometry" />
        </mxCell>
        <mxCell id="HSe9ybnoeYAT-a-J8o3R-136" value="" style="line;strokeWidth=1;rotatable=0;dashed=0;labelPosition=right;align=left;verticalAlign=middle;spacingTop=0;spacingLeft=6;points=[];portConstraint=eastwest;" vertex="1" parent="1">
          <mxGeometry x="524" y="777.75" width="30" height="10" as="geometry" />
        </mxCell>
        <mxCell id="HSe9ybnoeYAT-a-J8o3R-137" value="" style="line;strokeWidth=1;rotatable=0;dashed=0;labelPosition=right;align=left;verticalAlign=middle;spacingTop=0;spacingLeft=6;points=[];portConstraint=eastwest;" vertex="1" parent="1">
          <mxGeometry x="574" y="777.75" width="30" height="10" as="geometry" />
        </mxCell>
        <mxCell id="HSe9ybnoeYAT-a-J8o3R-138" value="" style="line;strokeWidth=1;rotatable=0;dashed=0;labelPosition=right;align=left;verticalAlign=middle;spacingTop=0;spacingLeft=6;points=[];portConstraint=eastwest;" vertex="1" parent="1">
          <mxGeometry x="611.5" y="782.5" width="30" height="0.5" as="geometry" />
        </mxCell>
        <mxCell id="HSe9ybnoeYAT-a-J8o3R-139" value="" style="line;strokeWidth=1;rotatable=0;dashed=0;labelPosition=right;align=left;verticalAlign=middle;spacingTop=0;spacingLeft=6;points=[];portConstraint=eastwest;" vertex="1" parent="1">
          <mxGeometry x="474" y="887.25" width="180" height="0.5" as="geometry" />
        </mxCell>
        <mxCell id="HSe9ybnoeYAT-a-J8o3R-140" value="" style="whiteSpace=wrap;html=1;rounded=1;arcSize=50;align=center;verticalAlign=middle;strokeWidth=1;autosize=1;spacing=4;treeFolding=1;treeMoving=1;newEdgeStyle={&quot;edgeStyle&quot;:&quot;entityRelationEdgeStyle&quot;,&quot;startArrow&quot;:&quot;none&quot;,&quot;endArrow&quot;:&quot;none&quot;,&quot;segment&quot;:10,&quot;curved&quot;:1,&quot;sourcePerimeterSpacing&quot;:0,&quot;targetPerimeterSpacing&quot;:0};direction=south;fillColor=#e1d5e7;strokeColor=#9673a6;" vertex="1" parent="1">
          <mxGeometry x="175" y="290.5" width="20" height="120" as="geometry" />
        </mxCell>
        <mxCell id="HSe9ybnoeYAT-a-J8o3R-141" value="" style="whiteSpace=wrap;html=1;rounded=1;arcSize=50;align=center;verticalAlign=middle;strokeWidth=1;autosize=1;spacing=4;treeFolding=1;treeMoving=1;newEdgeStyle={&quot;edgeStyle&quot;:&quot;entityRelationEdgeStyle&quot;,&quot;startArrow&quot;:&quot;none&quot;,&quot;endArrow&quot;:&quot;none&quot;,&quot;segment&quot;:10,&quot;curved&quot;:1,&quot;sourcePerimeterSpacing&quot;:0,&quot;targetPerimeterSpacing&quot;:0};direction=south;fillColor=#bac8d3;strokeColor=#23445d;" vertex="1" parent="1">
          <mxGeometry x="68" y="290.5" width="27" height="129.5" as="geometry" />
        </mxCell>
        <mxCell id="HSe9ybnoeYAT-a-J8o3R-142" value="" style="whiteSpace=wrap;html=1;rounded=1;arcSize=50;align=center;verticalAlign=middle;strokeWidth=1;autosize=1;spacing=4;treeFolding=1;treeMoving=1;newEdgeStyle={&quot;edgeStyle&quot;:&quot;entityRelationEdgeStyle&quot;,&quot;startArrow&quot;:&quot;none&quot;,&quot;endArrow&quot;:&quot;none&quot;,&quot;segment&quot;:10,&quot;curved&quot;:1,&quot;sourcePerimeterSpacing&quot;:0,&quot;targetPerimeterSpacing&quot;:0};direction=south;fillColor=#e1d5e7;strokeColor=#9673a6;" vertex="1" parent="1">
          <mxGeometry x="125" y="289" width="20" height="121" as="geometry" />
        </mxCell>
        <mxCell id="HSe9ybnoeYAT-a-J8o3R-143" value="" style="verticalLabelPosition=bottom;verticalAlign=top;html=1;shape=mxgraph.basic.arc;startAngle=0.878834316870679;endAngle=0.11506573784722958;" vertex="1" parent="1">
          <mxGeometry x="185" y="280" width="40" height="110" as="geometry" />
        </mxCell>
        <mxCell id="HSe9ybnoeYAT-a-J8o3R-144" value="" style="edgeStyle=entityRelationEdgeStyle;startArrow=none;endArrow=none;segment=10;curved=1;sourcePerimeterSpacing=0;targetPerimeterSpacing=0;rounded=0;" edge="1" parent="1">
          <mxGeometry relative="1" as="geometry">
            <mxPoint x="75" y="289" as="sourcePoint" />
            <mxPoint x="105" y="245" as="targetPoint" />
          </mxGeometry>
        </mxCell>
        <mxCell id="HSe9ybnoeYAT-a-J8o3R-145" value="" style="edgeStyle=orthogonalEdgeStyle;fontSize=12;html=1;endArrow=ERmany;rounded=0;curved=1;" edge="1" parent="1">
          <mxGeometry width="100" height="100" relative="1" as="geometry">
            <mxPoint x="128.5" y="289" as="sourcePoint" />
            <mxPoint x="118.5" y="249" as="targetPoint" />
            <Array as="points">
              <mxPoint x="151.5" y="289" />
              <mxPoint x="151.5" y="264" />
              <mxPoint x="128.5" y="264" />
              <mxPoint x="128.5" y="249" />
            </Array>
          </mxGeometry>
        </mxCell>
        <mxCell id="HSe9ybnoeYAT-a-J8o3R-146" value="" style="verticalLabelPosition=bottom;verticalAlign=top;html=1;shape=mxgraph.basic.arc;startAngle=0.8988433930003166;endAngle=0.09476242484817017;direction=west;" vertex="1" parent="1">
          <mxGeometry x="135" y="285" width="45" height="130" as="geometry" />
        </mxCell>
        <mxCell id="HSe9ybnoeYAT-a-J8o3R-147" value="" style="whiteSpace=wrap;html=1;rounded=1;arcSize=50;align=center;verticalAlign=middle;strokeWidth=1;autosize=1;spacing=4;treeFolding=1;treeMoving=1;newEdgeStyle={&quot;edgeStyle&quot;:&quot;entityRelationEdgeStyle&quot;,&quot;startArrow&quot;:&quot;none&quot;,&quot;endArrow&quot;:&quot;none&quot;,&quot;segment&quot;:10,&quot;curved&quot;:1,&quot;sourcePerimeterSpacing&quot;:0,&quot;targetPerimeterSpacing&quot;:0};direction=south;fillColor=#e1d5e7;strokeColor=#9673a6;" vertex="1" parent="1">
          <mxGeometry x="215" y="290" width="20" height="119.75" as="geometry" />
        </mxCell>
        <mxCell id="HSe9ybnoeYAT-a-J8o3R-148" value="" style="whiteSpace=wrap;html=1;rounded=1;arcSize=50;align=center;verticalAlign=middle;strokeWidth=1;autosize=1;spacing=4;treeFolding=1;treeMoving=1;newEdgeStyle={&quot;edgeStyle&quot;:&quot;entityRelationEdgeStyle&quot;,&quot;startArrow&quot;:&quot;none&quot;,&quot;endArrow&quot;:&quot;none&quot;,&quot;segment&quot;:10,&quot;curved&quot;:1,&quot;sourcePerimeterSpacing&quot;:0,&quot;targetPerimeterSpacing&quot;:0};direction=south;fillColor=#e1d5e7;strokeColor=#9673a6;" vertex="1" parent="1">
          <mxGeometry x="255" y="290" width="20" height="119.5" as="geometry" />
        </mxCell>
        <mxCell id="HSe9ybnoeYAT-a-J8o3R-149" value="" style="verticalLabelPosition=bottom;verticalAlign=top;html=1;shape=mxgraph.basic.arc;startAngle=0.9253616303125026;endAngle=0.07379180882521663;direction=west;" vertex="1" parent="1">
          <mxGeometry x="225" y="280" width="45" height="135" as="geometry" />
        </mxCell>
        <mxCell id="HSe9ybnoeYAT-a-J8o3R-150" value="" style="line;strokeWidth=1;rotatable=0;dashed=0;labelPosition=right;align=left;verticalAlign=middle;spacingTop=0;spacingLeft=6;points=[];portConstraint=eastwest;" vertex="1" parent="1">
          <mxGeometry x="95" y="290.5" width="30" height="10" as="geometry" />
        </mxCell>
        <mxCell id="HSe9ybnoeYAT-a-J8o3R-151" value="" style="line;strokeWidth=1;rotatable=0;dashed=0;labelPosition=right;align=left;verticalAlign=middle;spacingTop=0;spacingLeft=6;points=[];portConstraint=eastwest;" vertex="1" parent="1">
          <mxGeometry x="145" y="290.5" width="30" height="10" as="geometry" />
        </mxCell>
        <mxCell id="HSe9ybnoeYAT-a-J8o3R-152" value="" style="line;strokeWidth=1;rotatable=0;dashed=0;labelPosition=right;align=left;verticalAlign=middle;spacingTop=0;spacingLeft=6;points=[];portConstraint=eastwest;" vertex="1" parent="1">
          <mxGeometry x="195" y="290.5" width="30" height="10" as="geometry" />
        </mxCell>
        <mxCell id="HSe9ybnoeYAT-a-J8o3R-153" value="" style="line;strokeWidth=1;rotatable=0;dashed=0;labelPosition=right;align=left;verticalAlign=middle;spacingTop=0;spacingLeft=6;points=[];portConstraint=eastwest;" vertex="1" parent="1">
          <mxGeometry x="232.5" y="295.25" width="30" height="0.5" as="geometry" />
        </mxCell>
        <mxCell id="HSe9ybnoeYAT-a-J8o3R-154" value="" style="line;strokeWidth=1;rotatable=0;dashed=0;labelPosition=right;align=left;verticalAlign=middle;spacingTop=0;spacingLeft=6;points=[];portConstraint=eastwest;" vertex="1" parent="1">
          <mxGeometry x="95" y="400" width="180" height="0.5" as="geometry" />
        </mxCell>
        <mxCell id="HSe9ybnoeYAT-a-J8o3R-155" value="" style="whiteSpace=wrap;html=1;rounded=1;arcSize=50;align=center;verticalAlign=middle;strokeWidth=1;autosize=1;spacing=4;treeFolding=1;treeMoving=1;newEdgeStyle={&quot;edgeStyle&quot;:&quot;entityRelationEdgeStyle&quot;,&quot;startArrow&quot;:&quot;none&quot;,&quot;endArrow&quot;:&quot;none&quot;,&quot;segment&quot;:10,&quot;curved&quot;:1,&quot;sourcePerimeterSpacing&quot;:0,&quot;targetPerimeterSpacing&quot;:0};direction=south;fillColor=#e1d5e7;strokeColor=#9673a6;" vertex="1" parent="1">
          <mxGeometry x="549" y="295.5" width="20" height="120" as="geometry" />
        </mxCell>
        <mxCell id="HSe9ybnoeYAT-a-J8o3R-156" value="" style="whiteSpace=wrap;html=1;rounded=1;arcSize=50;align=center;verticalAlign=middle;strokeWidth=1;autosize=1;spacing=4;treeFolding=1;treeMoving=1;newEdgeStyle={&quot;edgeStyle&quot;:&quot;entityRelationEdgeStyle&quot;,&quot;startArrow&quot;:&quot;none&quot;,&quot;endArrow&quot;:&quot;none&quot;,&quot;segment&quot;:10,&quot;curved&quot;:1,&quot;sourcePerimeterSpacing&quot;:0,&quot;targetPerimeterSpacing&quot;:0};direction=south;fillColor=#bac8d3;strokeColor=#23445d;" vertex="1" parent="1">
          <mxGeometry x="442" y="295.5" width="27" height="129.5" as="geometry" />
        </mxCell>
        <mxCell id="HSe9ybnoeYAT-a-J8o3R-157" value="" style="whiteSpace=wrap;html=1;rounded=1;arcSize=50;align=center;verticalAlign=middle;strokeWidth=1;autosize=1;spacing=4;treeFolding=1;treeMoving=1;newEdgeStyle={&quot;edgeStyle&quot;:&quot;entityRelationEdgeStyle&quot;,&quot;startArrow&quot;:&quot;none&quot;,&quot;endArrow&quot;:&quot;none&quot;,&quot;segment&quot;:10,&quot;curved&quot;:1,&quot;sourcePerimeterSpacing&quot;:0,&quot;targetPerimeterSpacing&quot;:0};direction=south;fillColor=#e1d5e7;strokeColor=#9673a6;" vertex="1" parent="1">
          <mxGeometry x="499" y="294" width="20" height="121" as="geometry" />
        </mxCell>
        <mxCell id="HSe9ybnoeYAT-a-J8o3R-158" value="" style="verticalLabelPosition=bottom;verticalAlign=top;html=1;shape=mxgraph.basic.arc;startAngle=0.878834316870679;endAngle=0.11506573784722958;" vertex="1" parent="1">
          <mxGeometry x="559" y="285" width="40" height="110" as="geometry" />
        </mxCell>
        <mxCell id="HSe9ybnoeYAT-a-J8o3R-159" value="" style="edgeStyle=entityRelationEdgeStyle;startArrow=none;endArrow=none;segment=10;curved=1;sourcePerimeterSpacing=0;targetPerimeterSpacing=0;rounded=0;" edge="1" parent="1">
          <mxGeometry relative="1" as="geometry">
            <mxPoint x="449" y="294" as="sourcePoint" />
            <mxPoint x="479" y="250" as="targetPoint" />
          </mxGeometry>
        </mxCell>
        <mxCell id="HSe9ybnoeYAT-a-J8o3R-160" value="" style="edgeStyle=orthogonalEdgeStyle;fontSize=12;html=1;endArrow=ERmany;rounded=0;curved=1;" edge="1" parent="1">
          <mxGeometry width="100" height="100" relative="1" as="geometry">
            <mxPoint x="502.5" y="294" as="sourcePoint" />
            <mxPoint x="492.5" y="254" as="targetPoint" />
            <Array as="points">
              <mxPoint x="525.5" y="294" />
              <mxPoint x="525.5" y="269" />
              <mxPoint x="502.5" y="269" />
              <mxPoint x="502.5" y="254" />
            </Array>
          </mxGeometry>
        </mxCell>
        <mxCell id="HSe9ybnoeYAT-a-J8o3R-161" value="" style="verticalLabelPosition=bottom;verticalAlign=top;html=1;shape=mxgraph.basic.arc;startAngle=0.8988433930003166;endAngle=0.09476242484817017;direction=west;" vertex="1" parent="1">
          <mxGeometry x="509" y="290" width="45" height="130" as="geometry" />
        </mxCell>
        <mxCell id="HSe9ybnoeYAT-a-J8o3R-162" value="" style="whiteSpace=wrap;html=1;rounded=1;arcSize=50;align=center;verticalAlign=middle;strokeWidth=1;autosize=1;spacing=4;treeFolding=1;treeMoving=1;newEdgeStyle={&quot;edgeStyle&quot;:&quot;entityRelationEdgeStyle&quot;,&quot;startArrow&quot;:&quot;none&quot;,&quot;endArrow&quot;:&quot;none&quot;,&quot;segment&quot;:10,&quot;curved&quot;:1,&quot;sourcePerimeterSpacing&quot;:0,&quot;targetPerimeterSpacing&quot;:0};direction=south;fillColor=#e1d5e7;strokeColor=#9673a6;" vertex="1" parent="1">
          <mxGeometry x="589" y="295" width="20" height="119.75" as="geometry" />
        </mxCell>
        <mxCell id="HSe9ybnoeYAT-a-J8o3R-163" value="" style="whiteSpace=wrap;html=1;rounded=1;arcSize=50;align=center;verticalAlign=middle;strokeWidth=1;autosize=1;spacing=4;treeFolding=1;treeMoving=1;newEdgeStyle={&quot;edgeStyle&quot;:&quot;entityRelationEdgeStyle&quot;,&quot;startArrow&quot;:&quot;none&quot;,&quot;endArrow&quot;:&quot;none&quot;,&quot;segment&quot;:10,&quot;curved&quot;:1,&quot;sourcePerimeterSpacing&quot;:0,&quot;targetPerimeterSpacing&quot;:0};direction=south;fillColor=#e1d5e7;strokeColor=#9673a6;" vertex="1" collapsed="1" parent="1">
          <mxGeometry x="629" y="295" width="20" height="119.5" as="geometry" />
        </mxCell>
        <mxCell id="HSe9ybnoeYAT-a-J8o3R-164" value="" style="verticalLabelPosition=bottom;verticalAlign=top;html=1;shape=mxgraph.basic.arc;startAngle=0.9253616303125026;endAngle=0.07379180882521663;direction=west;" vertex="1" parent="1">
          <mxGeometry x="599" y="285" width="45" height="135" as="geometry" />
        </mxCell>
        <mxCell id="HSe9ybnoeYAT-a-J8o3R-165" value="" style="line;strokeWidth=1;rotatable=0;dashed=0;labelPosition=right;align=left;verticalAlign=middle;spacingTop=0;spacingLeft=6;points=[];portConstraint=eastwest;" vertex="1" parent="1">
          <mxGeometry x="469" y="295.5" width="30" height="10" as="geometry" />
        </mxCell>
        <mxCell id="HSe9ybnoeYAT-a-J8o3R-166" value="" style="line;strokeWidth=1;rotatable=0;dashed=0;labelPosition=right;align=left;verticalAlign=middle;spacingTop=0;spacingLeft=6;points=[];portConstraint=eastwest;" vertex="1" parent="1">
          <mxGeometry x="519" y="295.5" width="30" height="10" as="geometry" />
        </mxCell>
        <mxCell id="HSe9ybnoeYAT-a-J8o3R-167" value="" style="line;strokeWidth=1;rotatable=0;dashed=0;labelPosition=right;align=left;verticalAlign=middle;spacingTop=0;spacingLeft=6;points=[];portConstraint=eastwest;" vertex="1" parent="1">
          <mxGeometry x="569" y="295.5" width="30" height="10" as="geometry" />
        </mxCell>
        <mxCell id="HSe9ybnoeYAT-a-J8o3R-168" value="" style="line;strokeWidth=1;rotatable=0;dashed=0;labelPosition=right;align=left;verticalAlign=middle;spacingTop=0;spacingLeft=6;points=[];portConstraint=eastwest;" vertex="1" parent="1">
          <mxGeometry x="606.5" y="300.25" width="30" height="0.5" as="geometry" />
        </mxCell>
        <mxCell id="HSe9ybnoeYAT-a-J8o3R-169" value="" style="line;strokeWidth=1;rotatable=0;dashed=0;labelPosition=right;align=left;verticalAlign=middle;spacingTop=0;spacingLeft=6;points=[];portConstraint=eastwest;" vertex="1" parent="1">
          <mxGeometry x="469" y="405" width="180" height="0.5" as="geometry" />
        </mxCell>
        <mxCell id="HSe9ybnoeYAT-a-J8o3R-172" value="" style="strokeWidth=2;html=1;shape=mxgraph.flowchart.start_2;whiteSpace=wrap;fillColor=#CC0000;" vertex="1" parent="1">
          <mxGeometry x="219.5" y="693.5" width="20" height="20" as="geometry" />
        </mxCell>
        <mxCell id="HSe9ybnoeYAT-a-J8o3R-192" value="" style="strokeWidth=2;html=1;shape=mxgraph.flowchart.start_2;whiteSpace=wrap;fillColor=#CC0000;" vertex="1" parent="1">
          <mxGeometry x="559" y="659" width="20" height="20" as="geometry" />
        </mxCell>
        <mxCell id="HSe9ybnoeYAT-a-J8o3R-193" value="" style="strokeWidth=2;html=1;shape=mxgraph.flowchart.start_2;whiteSpace=wrap;fillColor=#CC0000;" vertex="1" parent="1">
          <mxGeometry x="598" y="724.75" width="20" height="20" as="geometry" />
        </mxCell>
        <mxCell id="HSe9ybnoeYAT-a-J8o3R-194" value="" style="strokeWidth=2;html=1;shape=mxgraph.flowchart.start_2;whiteSpace=wrap;fillColor=#CC0000;" vertex="1" parent="1">
          <mxGeometry x="633" y="679" width="20" height="20" as="geometry" />
        </mxCell>
        <mxCell id="HSe9ybnoeYAT-a-J8o3R-195" value="" style="strokeWidth=2;html=1;shape=mxgraph.flowchart.start_2;whiteSpace=wrap;fillColor=#CC0000;" vertex="1" parent="1">
          <mxGeometry x="80" y="190" width="20" height="20" as="geometry" />
        </mxCell>
        <mxCell id="HSe9ybnoeYAT-a-J8o3R-196" value="" style="strokeWidth=2;html=1;shape=mxgraph.flowchart.start_2;whiteSpace=wrap;fillColor=#CC0000;" vertex="1" parent="1">
          <mxGeometry x="150" y="220" width="20" height="20" as="geometry" />
        </mxCell>
        <mxCell id="HSe9ybnoeYAT-a-J8o3R-197" value="" style="strokeWidth=2;html=1;shape=mxgraph.flowchart.start_2;whiteSpace=wrap;fillColor=#CC0000;" vertex="1" parent="1">
          <mxGeometry x="250" y="230" width="20" height="20" as="geometry" />
        </mxCell>
        <mxCell id="HSe9ybnoeYAT-a-J8o3R-198" value="" style="strokeWidth=2;html=1;shape=mxgraph.flowchart.start_2;whiteSpace=wrap;fillColor=#CC0000;" vertex="1" parent="1">
          <mxGeometry x="530" y="210" width="20" height="20" as="geometry" />
        </mxCell>
        <mxCell id="HSe9ybnoeYAT-a-J8o3R-199" value="" style="strokeWidth=2;html=1;shape=mxgraph.flowchart.start_2;whiteSpace=wrap;fillColor=#CC0000;" vertex="1" parent="1">
          <mxGeometry x="580" y="250" width="20" height="20" as="geometry" />
        </mxCell>
        <mxCell id="HSe9ybnoeYAT-a-J8o3R-200" value="" style="strokeWidth=2;html=1;shape=mxgraph.flowchart.start_2;whiteSpace=wrap;fillColor=#CC0000;" vertex="1" parent="1">
          <mxGeometry x="600" y="190" width="20" height="20" as="geometry" />
        </mxCell>
        <mxCell id="HSe9ybnoeYAT-a-J8o3R-201" value="" style="strokeWidth=2;html=1;shape=mxgraph.flowchart.start_2;whiteSpace=wrap;fillColor=#CC0000;" vertex="1" parent="1">
          <mxGeometry x="430" y="210" width="20" height="20" as="geometry" />
        </mxCell>
        <mxCell id="HSe9ybnoeYAT-a-J8o3R-202" value="" style="strokeWidth=2;html=1;shape=mxgraph.flowchart.start_2;whiteSpace=wrap;fillColor=#CC0000;" vertex="1" parent="1">
          <mxGeometry x="129.5" y="673.5" width="20" height="20" as="geometry" />
        </mxCell>
        <mxCell id="HSe9ybnoeYAT-a-J8o3R-203" value="" style="strokeWidth=2;html=1;shape=mxgraph.flowchart.start_2;whiteSpace=wrap;fillColor=#CC0000;" vertex="1" parent="1">
          <mxGeometry x="49.5" y="693.5" width="20" height="20" as="geometry" />
        </mxCell>
        <mxCell id="HSe9ybnoeYAT-a-J8o3R-204" value="" style="strokeWidth=2;html=1;shape=mxgraph.flowchart.start_2;whiteSpace=wrap;fillColor=#CC0000;" vertex="1" parent="1">
          <mxGeometry x="95.5" y="733.5" width="20" height="20" as="geometry" />
        </mxCell>
        <mxCell id="HSe9ybnoeYAT-a-J8o3R-205" value="" style="rounded=0;orthogonalLoop=1;jettySize=auto;html=1;endArrow=halfCircle;endFill=0;endSize=6;strokeWidth=1;sketch=0;fontSize=12;curved=1;strokeColor=#9E6489;" edge="1" target="HSe9ybnoeYAT-a-J8o3R-206" parent="1">
          <mxGeometry relative="1" as="geometry">
            <mxPoint x="544" y="644" as="sourcePoint" />
          </mxGeometry>
        </mxCell>
        <mxCell id="HSe9ybnoeYAT-a-J8o3R-206" value="" style="ellipse;whiteSpace=wrap;html=1;align=center;aspect=fixed;fillColor=none;strokeColor=none;resizable=0;perimeter=centerPerimeter;rotatable=0;allowArrows=0;points=[];outlineConnect=1;" vertex="1" parent="1">
          <mxGeometry x="559" y="659" width="10" height="10" as="geometry" />
        </mxCell>
        <mxCell id="HSe9ybnoeYAT-a-J8o3R-208" value="" style="rounded=0;orthogonalLoop=1;jettySize=auto;html=1;endArrow=halfCircle;endFill=0;endSize=6;strokeWidth=1;sketch=0;fontSize=12;curved=1;strokeColor=#9E6489;" edge="1" target="HSe9ybnoeYAT-a-J8o3R-209" parent="1">
          <mxGeometry relative="1" as="geometry">
            <mxPoint x="459" y="659" as="sourcePoint" />
          </mxGeometry>
        </mxCell>
        <mxCell id="HSe9ybnoeYAT-a-J8o3R-209" value="" style="ellipse;whiteSpace=wrap;html=1;align=center;aspect=fixed;fillColor=none;strokeColor=none;resizable=0;perimeter=centerPerimeter;rotatable=0;allowArrows=0;points=[];outlineConnect=1;" vertex="1" parent="1">
          <mxGeometry x="468" y="684" width="10" height="10" as="geometry" />
        </mxCell>
        <mxCell id="HSe9ybnoeYAT-a-J8o3R-210" value="" style="rounded=0;orthogonalLoop=1;jettySize=auto;html=1;endArrow=halfCircle;endFill=0;endSize=6;strokeWidth=1;sketch=0;fontSize=12;curved=1;strokeColor=#9E6489;" edge="1" target="HSe9ybnoeYAT-a-J8o3R-211" parent="1">
          <mxGeometry relative="1" as="geometry">
            <mxPoint x="644" y="654" as="sourcePoint" />
          </mxGeometry>
        </mxCell>
        <mxCell id="HSe9ybnoeYAT-a-J8o3R-211" value="" style="ellipse;whiteSpace=wrap;html=1;align=center;aspect=fixed;fillColor=none;strokeColor=none;resizable=0;perimeter=centerPerimeter;rotatable=0;allowArrows=0;points=[];outlineConnect=1;" vertex="1" parent="1">
          <mxGeometry x="638" y="669" width="10" height="10" as="geometry" />
        </mxCell>
        <mxCell id="HSe9ybnoeYAT-a-J8o3R-212" value="" style="rounded=0;orthogonalLoop=1;jettySize=auto;html=1;endArrow=halfCircle;endFill=0;endSize=6;strokeWidth=1;sketch=0;fontSize=12;curved=1;strokeColor=#9E6489;" edge="1" parent="1">
          <mxGeometry relative="1" as="geometry">
            <mxPoint x="568" y="709" as="sourcePoint" />
            <mxPoint x="598" y="729" as="targetPoint" />
          </mxGeometry>
        </mxCell>
        <mxCell id="HSe9ybnoeYAT-a-J8o3R-213" value="" style="ellipse;whiteSpace=wrap;html=1;align=center;aspect=fixed;fillColor=none;strokeColor=none;resizable=0;perimeter=centerPerimeter;rotatable=0;allowArrows=0;points=[];outlineConnect=1;" vertex="1" parent="1">
          <mxGeometry x="400" y="510" width="10" height="10" as="geometry" />
        </mxCell>
        <mxCell id="HSe9ybnoeYAT-a-J8o3R-215" value="" style="rounded=0;orthogonalLoop=1;jettySize=auto;html=1;endArrow=halfCircle;endFill=0;endSize=6;strokeWidth=1;sketch=0;fontSize=12;curved=1;exitX=0.66;exitY=0.92;exitDx=0;exitDy=0;exitPerimeter=0;fillColor=#f8cecc;strokeColor=#b85450;" edge="1" parent="1" source="HSe9ybnoeYAT-a-J8o3R-216">
          <mxGeometry relative="1" as="geometry">
            <mxPoint x="470" y="230" as="sourcePoint" />
            <mxPoint x="485" y="250" as="targetPoint" />
          </mxGeometry>
        </mxCell>
        <mxCell id="HSe9ybnoeYAT-a-J8o3R-216" value="" style="ellipse;whiteSpace=wrap;html=1;align=center;aspect=fixed;fillColor=none;strokeColor=none;resizable=0;perimeter=centerPerimeter;rotatable=0;allowArrows=0;points=[];outlineConnect=1;" vertex="1" parent="1">
          <mxGeometry x="480" y="210" width="10" height="10" as="geometry" />
        </mxCell>
        <mxCell id="HSe9ybnoeYAT-a-J8o3R-217" value="" style="rounded=0;orthogonalLoop=1;jettySize=auto;html=1;endArrow=halfCircle;endFill=0;endSize=6;strokeWidth=1;sketch=0;fontSize=12;curved=1;fillColor=#f8cecc;strokeColor=#b85450;" edge="1" target="HSe9ybnoeYAT-a-J8o3R-218" parent="1">
          <mxGeometry relative="1" as="geometry">
            <mxPoint x="475" y="175" as="sourcePoint" />
          </mxGeometry>
        </mxCell>
        <mxCell id="HSe9ybnoeYAT-a-J8o3R-218" value="" style="ellipse;whiteSpace=wrap;html=1;align=center;aspect=fixed;fillColor=none;strokeColor=none;resizable=0;perimeter=centerPerimeter;rotatable=0;allowArrows=0;points=[];outlineConnect=1;" vertex="1" parent="1">
          <mxGeometry x="500" y="190" width="10" height="10" as="geometry" />
        </mxCell>
        <mxCell id="HSe9ybnoeYAT-a-J8o3R-221" value="" style="html=1;whiteSpace=wrap;aspect=fixed;shape=isoRectangle;fillColor=#67AB9F;" vertex="1" parent="1">
          <mxGeometry x="89.67" y="220" width="50" height="30" as="geometry" />
        </mxCell>
        <mxCell id="HSe9ybnoeYAT-a-J8o3R-222" value="" style="verticalLabelPosition=bottom;verticalAlign=top;html=1;shape=mxgraph.basic.tick;fillColor=#008a00;fontColor=#ffffff;strokeColor=#005700;" vertex="1" parent="1">
          <mxGeometry x="246" y="989.63" width="29" height="27.75" as="geometry" />
        </mxCell>
        <mxCell id="HSe9ybnoeYAT-a-J8o3R-223" value="" style="verticalLabelPosition=bottom;verticalAlign=top;html=1;shape=mxgraph.basic.x;fillColor=#FF0000;" vertex="1" parent="1">
          <mxGeometry x="529" y="928.51" width="30" height="30" as="geometry" />
        </mxCell>
        <mxCell id="HSe9ybnoeYAT-a-J8o3R-224" value="" style="verticalLabelPosition=bottom;verticalAlign=top;html=1;shape=mxgraph.basic.x;fillColor=#FF0000;" vertex="1" parent="1">
          <mxGeometry x="525" y="435" width="30" height="30" as="geometry" />
        </mxCell>
        <mxCell id="HSe9ybnoeYAT-a-J8o3R-225" value="" style="verticalLabelPosition=bottom;verticalAlign=top;html=1;shape=mxgraph.basic.x;fillColor=#FF0000;fontColor=#ffffff;strokeColor=#A50040;" vertex="1" parent="1">
          <mxGeometry x="130.5" y="435" width="30" height="30" as="geometry" />
        </mxCell>
        <mxCell id="HSe9ybnoeYAT-a-J8o3R-229" value="Сигнал передаётся" style="whiteSpace=wrap;html=1;shape=mxgraph.basic.rectCallout;dx=30;dy=15;boundedLbl=1;fillColor=#d5e8d4;strokeColor=#82b366;" vertex="1" parent="1">
          <mxGeometry x="65.5" y="973.51" width="165" height="60" as="geometry" />
        </mxCell>
        <mxCell id="HSe9ybnoeYAT-a-J8o3R-230" value="Сигнал блокирован" style="whiteSpace=wrap;html=1;shape=mxgraph.basic.rectCallout;dx=30;dy=15;boundedLbl=1;fillColor=#f8cecc;strokeColor=#b85450;" vertex="1" parent="1">
          <mxGeometry x="450" y="973.51" width="161" height="60" as="geometry" />
        </mxCell>
        <mxCell id="HSe9ybnoeYAT-a-J8o3R-231" value="Сигнал блокирован" style="whiteSpace=wrap;html=1;shape=mxgraph.basic.rectCallout;dx=30;dy=15;boundedLbl=1;fillColor=#f8cecc;strokeColor=#b85450;" vertex="1" parent="1">
          <mxGeometry x="59.5" y="480" width="160" height="60" as="geometry" />
        </mxCell>
        <mxCell id="HSe9ybnoeYAT-a-J8o3R-232" value="Сигнал блокирован" style="whiteSpace=wrap;html=1;shape=mxgraph.basic.rectCallout;dx=30;dy=15;boundedLbl=1;fillColor=#f8cecc;strokeColor=#b85450;" vertex="1" parent="1">
          <mxGeometry x="440" y="480" width="160" height="60" as="geometry" />
        </mxCell>
        <mxCell id="HSe9ybnoeYAT-a-J8o3R-246" value="&lt;b&gt;&lt;font style=&quot;font-size: 20px;&quot;&gt;C&lt;/font&gt;&lt;/b&gt; CGRP антагонист&amp;nbsp; рецептора" style="html=1;whiteSpace=wrap;fillColor=#f5f5f5;fontColor=#333333;strokeColor=#666666;rounded=1;shadow=1;glass=0;" vertex="1" parent="1">
          <mxGeometry x="31.75" y="80" width="306.5" height="50" as="geometry" />
        </mxCell>
        <mxCell id="HSe9ybnoeYAT-a-J8o3R-247" value="&lt;b&gt;&lt;font style=&quot;font-size: 20px;&quot;&gt;D&lt;/font&gt;&lt;/b&gt; Антитела к рецептору, связывающему CGRP" style="html=1;whiteSpace=wrap;fillColor=#f5f5f5;fontColor=#333333;strokeColor=#666666;rounded=1;shadow=1;" vertex="1" parent="1">
          <mxGeometry x="409.75" y="80" width="289.25" height="50" as="geometry" />
        </mxCell>
        <mxCell id="HSe9ybnoeYAT-a-J8o3R-248" value="&lt;b&gt;&lt;font style=&quot;font-size: 23px;&quot;&gt;A&lt;/font&gt;&lt;/b&gt; Высвобождение CGRP&amp;nbsp;" style="html=1;whiteSpace=wrap;fillColor=#f5f5f5;fontColor=#333333;strokeColor=#666666;rounded=1;shadow=1;" vertex="1" parent="1">
          <mxGeometry x="27.25" y="570" width="306.5" height="50" as="geometry" />
        </mxCell>
        <mxCell id="HSe9ybnoeYAT-a-J8o3R-249" value="&lt;b&gt;&lt;font style=&quot;font-size: 20px;&quot;&gt;B&lt;/font&gt;&lt;/b&gt; Антитела к&amp;nbsp; самому CGRP&amp;nbsp;" style="html=1;whiteSpace=wrap;fillColor=#f5f5f5;fontColor=#333333;strokeColor=#666666;rounded=1;shadow=1;" vertex="1" parent="1">
          <mxGeometry x="405.75" y="570" width="306.5" height="50" as="geometry" />
        </mxCell>
        <mxCell id="HSe9ybnoeYAT-a-J8o3R-257" value="" style="html=1;shadow=0;dashed=0;align=center;verticalAlign=middle;shape=mxgraph.arrows2.arrow;dy=0.6;dx=40;direction=south;notch=0;fillColor=#64B018;fontColor=#ffffff;strokeColor=#2D7600;" vertex="1" parent="1">
          <mxGeometry x="145" y="913.51" width="30" height="60" as="geometry" />
        </mxCell>
        <mxCell id="HSe9ybnoeYAT-a-J8o3R-259" value="CLR" style="ellipse;whiteSpace=wrap;html=1;fillColor=#f5f5f5;fontColor=#333333;strokeColor=#666666;" vertex="1" parent="1">
          <mxGeometry x="284" y="340.5" width="54.25" height="30" as="geometry" />
        </mxCell>
        <mxCell id="HSe9ybnoeYAT-a-J8o3R-260" value="CLR" style="ellipse;whiteSpace=wrap;html=1;fillColor=#f5f5f5;fontColor=#333333;strokeColor=#666666;" vertex="1" parent="1">
          <mxGeometry x="668" y="335" width="54.25" height="30" as="geometry" />
        </mxCell>
        <mxCell id="HSe9ybnoeYAT-a-J8o3R-261" value="CLR" style="ellipse;whiteSpace=wrap;html=1;fillColor=#f5f5f5;fontColor=#333333;strokeColor=#666666;" vertex="1" parent="1">
          <mxGeometry x="668" y="823.75" width="54.25" height="30" as="geometry" />
        </mxCell>
        <mxCell id="HSe9ybnoeYAT-a-J8o3R-262" value="CLR" style="ellipse;whiteSpace=wrap;html=1;fillColor=#f5f5f5;fontColor=#333333;strokeColor=#666666;" vertex="1" parent="1">
          <mxGeometry x="279.5" y="823.75" width="54.25" height="30" as="geometry" />
        </mxCell>
        <mxCell id="HSe9ybnoeYAT-a-J8o3R-263" value="RAMP" style="ellipse;shape=doubleEllipse;whiteSpace=wrap;html=1;aspect=fixed;fillColor=#d5e8d4;strokeColor=#82b366;" vertex="1" parent="1">
          <mxGeometry x="13.5" y="327.5" width="50" height="50" as="geometry" />
        </mxCell>
        <mxCell id="HSe9ybnoeYAT-a-J8o3R-264" value="RAMP" style="ellipse;shape=doubleEllipse;whiteSpace=wrap;html=1;aspect=fixed;fillColor=#d5e8d4;strokeColor=#82b366;" vertex="1" parent="1">
          <mxGeometry x="392" y="329.5" width="50" height="50" as="geometry" />
        </mxCell>
        <mxCell id="HSe9ybnoeYAT-a-J8o3R-265" value="RAMP" style="ellipse;shape=doubleEllipse;whiteSpace=wrap;html=1;aspect=fixed;fillColor=#d5e8d4;strokeColor=#82b366;" vertex="1" parent="1">
          <mxGeometry x="392" y="813.75" width="50" height="50" as="geometry" />
        </mxCell>
        <mxCell id="HSe9ybnoeYAT-a-J8o3R-266" value="RAMP" style="ellipse;shape=doubleEllipse;whiteSpace=wrap;html=1;aspect=fixed;fillColor=#d5e8d4;strokeColor=#82b366;" vertex="1" parent="1">
          <mxGeometry x="9.5" y="813.75" width="50" height="50" as="geometry" />
        </mxCell>
        <mxCell id="HSe9ybnoeYAT-a-J8o3R-267" value="" style="html=1;whiteSpace=wrap;aspect=fixed;shape=isoRectangle;fillColor=#67AB9F;direction=south;" vertex="1" parent="1">
          <mxGeometry x="160" y="140" width="30" height="50" as="geometry" />
        </mxCell>
        <mxCell id="HSe9ybnoeYAT-a-J8o3R-268" value="" style="html=1;whiteSpace=wrap;aspect=fixed;shape=isoRectangle;fillColor=#67AB9F;direction=south;" vertex="1" parent="1">
          <mxGeometry x="205" y="190" width="30" height="50" as="geometry" />
        </mxCell>
      </root>
    </mxGraphModel>
  </diagram>
</mxfile>
